<svg xmlns="http://www.w3.org/2000/svg" width="78.074" height="38.152" viewBox="0 0 78.074 38.152">
  <g id="Group_189288" data-name="Group 189288" transform="translate(17155.531 19565.404)">
    <path id="Subtraction_156" data-name="Subtraction 156" d="M15.593,31.214A15.6,15.6,0,0,1,4.193,4.963,15.558,15.558,0,0,1,15.063.01c.186-.006.374-.01.559-.01a15.552,15.552,0,0,1,9.6,3.308l-2.9.1,6.73,20.139a15.688,15.688,0,0,1-6.866,6.218A15.505,15.505,0,0,1,16.152,31.2C15.966,31.211,15.778,31.214,15.593,31.214ZM15.61,8h0c-.089,0-.179,0-.268,0a7.6,7.6,0,0,0,.262,15.2c.089,0,.179,0,.269,0A7.6,7.6,0,0,0,15.611,8Z" transform="translate(-17155.531 -19562.574)" fill="#55af56"/>
    <path id="Subtraction_159" data-name="Subtraction 159" d="M10.4,38.152,0,7.041l8.675-.3,4.736,16.024L24.137.377,34.927,0l-2.06,3.938A15.63,15.63,0,0,0,22.271,24.2L16.882,34.5v0l0,.009,0,0L10.4,38.152Z" transform="translate(-17132.012 -19565.404)" fill="#ff432b"/>
    <path id="Subtraction_161" data-name="Subtraction 161" d="M15.607,31.214A15.6,15.6,0,0,1,4.572,4.571,15.6,15.6,0,0,1,24.026,2.462V0l7.806,1.241V29.792l-7.806,1.241V28.752a15.571,15.571,0,0,1-8.419,2.461Zm0-23.21a7.6,7.6,0,1,0,7.6,7.6A7.612,7.612,0,0,0,15.607,8Z" transform="matrix(0.999, -0.035, 0.035, 0.999, -17110.359, -19561.063)" fill="#55af56"/>
  </g>
</svg>
