<svg xmlns="http://www.w3.org/2000/svg" width="40.594" height="48.384" viewBox="0 0 40.594 48.384">
  <path id="Subtraction_185" data-name="Subtraction 185" d="M17.913,116.9A17.52,17.52,0,0,1,5.346,111.8,17.882,17.882,0,0,1,.255,99.234L0,85.481a2.3,2.3,0,0,1,.658-1.657,2.342,2.342,0,0,1,1.647-.71h.042A2.348,2.348,0,0,1,4.693,85.4c0,.046.073,4.794.133,8.252a2.212,2.212,0,0,0,1.842,2.386c.066.007.129.01.188.01a2.156,2.156,0,0,0,2.011-2.1l3.341-21.466.24-1.5a2.329,2.329,0,0,1,2.315-1.964,2.392,2.392,0,0,1,.369.029,2.334,2.334,0,0,1,1.536.938,2.3,2.3,0,0,1,.414,1.725l-2.539,15.9-1.183,7.158a2.046,2.046,0,0,0,.154,1.561,1.261,1.261,0,0,0,.836.542,1.667,1.667,0,0,0,.338.036c.781,0,1.35-.558,1.559-1.531l1.463-6.682,4.277-18.371a2.331,2.331,0,0,1,2.284-1.8,2.38,2.38,0,0,1,.53.06,2.329,2.329,0,0,1,1.467,1.042,2.3,2.3,0,0,1,.292,1.749l-2.193,9.421L20.574,96.362a2.121,2.121,0,0,0,.025,1.609,1.074,1.074,0,0,0,.675.517,1.322,1.322,0,0,0,.359.051c.676,0,1.218-.53,1.485-1.454L24.6,92.524,30.748,74.8a2.354,2.354,0,0,1,4.332-.255,2.293,2.293,0,0,1,.106,1.77l-9.075,26.208-.024-.011a10.88,10.88,0,0,1-2.232,3.386,8.337,8.337,0,0,1-5.124,2.53c-.335.029-.669.044-.993.044a8.777,8.777,0,0,1-6.4-2.6,8.88,8.88,0,0,1-1.809-2.6,1.88,1.88,0,0,0-1.541-.99,2.191,2.191,0,0,0-1.042.3,1.785,1.785,0,0,0-.927,1.084,2.621,2.621,0,0,0,.273,1.771,11.447,11.447,0,0,0,2.387,3.248,12.985,12.985,0,0,0,8.47,3.606c.251.015.5.022.753.022a12.02,12.02,0,0,0,8.284-3.342,14.8,14.8,0,0,0,2.381-2.885c.02-.062.031-.1.031-.1l-.016.077a10.363,10.363,0,0,0,.548-.968c1.876-5.245,7.029-20.252,7.08-20.4a2.317,2.317,0,0,1,2.174-1.574,2.2,2.2,0,0,1,1.981,1.243,2.313,2.313,0,0,1,.1,1.784L33,107.283l0,0c-.025.044-.05.088-.076.131s-.055.107-.095.186a16.416,16.416,0,0,1-1.809,2.895,18.658,18.658,0,0,1-4.251,3.826A18.773,18.773,0,0,1,17.913,116.9Z" transform="translate(0 -68.519)" fill="#252525"/>
</svg>
